<svg preserveAspectRatio="none" width="100%" height="100%" overflow="visible" style="display: block;" viewBox="0 0 22 22" fill="none" xmlns="http://www.w3.org/2000/svg">
<g id="clarity:language-line" clip-path="url(#clip0_0_104)">
<path id="Vector" d="M18.3333 1.83333H8.55556V4.88889H9.77778V3.05556H18.3333C18.7 3.05556 18.9444 3.3 18.9444 3.66667V10.3889C18.9444 10.7556 18.7 11 18.3333 11H10.3889V15.2778H7.15L4.88889 17.05V15.2778H3.05556C2.68889 15.2778 2.44444 15.0333 2.44444 14.6667V7.94444C2.44444 7.57778 2.68889 7.33333 3.05556 7.33333H11V6.11111H3.05556C2.01667 6.11111 1.22222 6.90556 1.22222 7.94444V14.6667C1.22222 15.7056 2.01667 16.5 3.05556 16.5H3.66667V19.6167L7.51667 16.5H11.6111V12.2222H18.3333C19.3722 12.2222 20.1667 11.4278 20.1667 10.3889V3.66667C20.1667 2.62778 19.3722 1.83333 18.3333 1.83333Z" fill="var(--fill-0, #212A37)"/>
<path id="Vector_2" d="M3.78862 13.9944H5.25528L5.62195 13.0166H7.51639L7.88306 13.9944H9.34973L7.27195 8.55554H5.80528L3.78862 13.9944ZM6.53862 10.0833L7.14973 11.9778H5.9275L6.53862 10.0833Z" fill="var(--fill-0, #212A37)"/>
<path id="Vector_3" d="M12.2222 10.3889C12.8944 10.3889 13.8111 10.2056 14.6667 9.77778C15.5222 10.2056 16.5 10.3889 17.1111 10.3889V9.16667C17.1111 9.16667 16.5 9.16667 15.8278 8.92222C16.5611 8.18889 17.1111 7.08889 17.1111 5.5V4.88889H15.2778V3.66667H14.0556V4.88889H12.2222V6.11111H15.8278C15.7056 7.21111 15.2167 7.88333 14.6667 8.31111C14.3 8.00556 13.9333 7.57778 13.6889 7.02778H12.4056C12.65 7.82222 13.0167 8.43333 13.5056 8.92222C12.8944 9.16667 12.3444 9.16667 12.2222 9.16667V10.3889Z" fill="var(--fill-0, #212A37)"/>
<g id="Vector_4">
</g>
</g>
<defs>
<clipPath id="clip0_0_104">
<rect width="22" height="22" fill="white"/>
</clipPath>
</defs>
</svg>
