<svg preserveAspectRatio="none" width="100%" height="100%" overflow="visible" style="display: block;" viewBox="0 0 25 25" fill="none" xmlns="http://www.w3.org/2000/svg">
<g id="material-symbols:search">
<path id="Vector" d="M17.6778 21L11.7278 15.05C11.2556 15.4278 10.7125 15.7269 10.0986 15.9472C9.48472 16.1676 8.83148 16.2778 8.13889 16.2778C6.42315 16.2778 4.97122 15.6834 3.78311 14.4947C2.595 13.3059 2.00063 11.854 2 10.1389C1.99937 8.42378 2.59374 6.97185 3.78311 5.78311C4.97248 4.59437 6.42441 4 8.13889 4C9.85337 4 11.3056 4.59437 12.4956 5.78311C13.6856 6.97185 14.2797 8.42378 14.2778 10.1389C14.2778 10.8315 14.1676 11.4847 13.9472 12.0986C13.7269 12.7125 13.4278 13.2556 13.05 13.7278L19 19.6778L17.6778 21ZM8.13889 14.3889C9.31944 14.3889 10.3231 13.9759 11.1498 13.1498C11.9765 12.3237 12.3895 11.3201 12.3889 10.1389C12.3883 8.9577 11.9752 7.95439 11.1498 7.12894C10.3243 6.3035 9.3207 5.89015 8.13889 5.88889C6.95707 5.88763 5.95376 6.30098 5.12894 7.12894C4.30413 7.95691 3.89078 8.96022 3.88889 10.1389C3.887 11.3176 4.30035 12.3212 5.12894 13.1498C5.95754 13.9784 6.96085 14.3914 8.13889 14.3889Z" fill="var(--fill-0, #212A37)"/>
</g>
</svg>
